{"glyphs":{" ":{"ha":0,"x_min":0,"x_max":0,"o":""},"A":{"ha":1242,"x_min":0,"x_max":0,"o":"m 804 206 b 932 61 868 149 883 132 b 1003 -197 978 -7 1001 -93 l 1096 -197 b 1103 -204 1100 -197 1103 -200 l 1103 -217 b 1096 -224 1103 -221 1100 -224 l 147 -224 b 139 -217 142 -224 139 -221 l 139 -204 b 147 -197 139 -200 142 -197 l 244 -197 b 318 94 246 -69 269 28 b 381 168 342 126 363 151 b 450 225 397 183 421 203 b 450 467 568 314 568 376 b 342 564 404 500 385 514 b 293 642 321 589 304 615 b 244 888 269 694 246 783 l 147 888 b 139 896 142 888 139 890 l 139 907 b 147 915 139 913 142 915 l 1096 915 b 1103 907 1100 915 1103 913 l 1103 896 b 1096 888 1103 890 1100 888 l 1003 888 b 932 632 1001 783 979 699 b 804 485 881 558 868 546 b 710 346 742 426 710 381 b 804 206 710 311 742 265 m 465 204 b 399 149 436 182 414 164 b 342 79 383 133 364 111 b 271 -197 296 17 272 -75 l 976 -197 b 908 47 975 -97 953 -18 b 786 186 861 115 846 131 b 683 346 718 251 683 304 b 786 504 683 388 718 440 b 908 644 846 560 861 576 b 976 888 953 708 975 789 l 271 888 b 317 654 272 789 294 704 b 364 581 328 629 343 604 b 465 488 407 529 417 524 b 465 204 599 388 599 303 "},"B":{"ha":1661,"x_min":0,"x_max":0,"o":"m 818 -290 l 818 -31 b 729 -126 803 -36 774 -68 b 717 -142 724 -133 719 -137 l 604 -281 b 594 -281 601 -285 599 -285 l 585 -274 b 585 -262 581 -269 581 -267 l 696 -125 b 783 -22 736 -71 765 -37 l 350 -22 b 201 40 292 -22 242 -1 b 139 189 160 81 139 131 l 139 704 b 201 854 139 763 160 813 b 350 915 242 894 292 915 l 1311 915 b 1461 854 1369 915 1419 894 b 1522 704 1501 813 1522 763 l 1522 189 b 1461 40 1522 131 1501 81 b 1311 -22 1419 -1 1369 -22 l 879 -22 b 967 -125 899 -40 928 -75 b 1078 -262 1001 -169 1038 -215 b 1076 -274 1081 -267 1081 -269 l 1067 -281 b 1057 -281 1063 -285 1060 -285 l 946 -142 b 844 -31 893 -74 860 -37 l 844 -290 b 836 -297 844 -294 842 -297 l 825 -297 b 818 -290 821 -297 818 -294 m 350 889 b 219 835 299 889 256 871 b 165 704 183 799 165 756 l 165 189 b 219 58 165 138 183 94 b 350 4 256 22 299 4 l 1311 4 b 1442 58 1363 4 1406 22 b 1496 189 1478 94 1496 138 l 1496 704 b 1442 835 1496 756 1478 799 b 1311 889 1406 871 1363 889 "},"C":{"ha":1661,"x_min":0,"x_max":0,"o":"m 689 -22 l 476 -294 b 465 -296 472 -299 469 -299 l 456 -287 b 456 -278 451 -285 451 -282 l 656 -22 l 350 -22 b 201 40 293 -22 243 -1 b 139 189 160 81 139 131 l 139 704 b 201 854 139 763 160 813 b 350 915 243 894 293 915 l 1311 915 b 1461 854 1369 915 1419 894 b 1522 704 1501 813 1522 763 l 1522 189 b 1461 40 1522 131 1501 81 b 1311 -22 1419 -1 1369 -22 l 1007 -22 l 1207 -278 b 1206 -287 1211 -282 1210 -285 l 1197 -296 b 1186 -294 1193 -299 1190 -299 l 972 -22 m 350 889 b 219 835 299 889 256 871 b 165 704 183 799 165 756 l 165 189 b 219 58 165 138 183 94 b 350 4 256 22 299 4 l 1311 4 b 1442 58 1363 4 1406 22 b 1496 189 1478 94 1496 138 l 1496 704 b 1443 835 1496 756 1478 799 b 1311 889 1407 871 1363 889 m 453 275 b 492 264 467 275 479 271 l 635 432 b 615 482 622 444 615 461 b 694 560 615 525 651 560 b 772 482 738 560 772 525 b 767 456 772 475 771 467 l 888 388 b 949 417 903 407 922 417 b 983 408 961 417 972 414 l 1154 642 b 1156 751 1125 671 1125 721 b 1265 751 1186 782 1235 782 b 1210 618 1313 703 1278 618 b 1175 626 1196 618 1185 621 l 1004 393 b 949 261 1051 346 1017 261 b 871 339 906 261 871 296 b 875 365 871 349 872 357 l 754 432 b 694 403 739 413 718 403 b 654 414 679 403 667 407 l 513 247 b 531 197 525 232 531 215 b 399 143 531 129 446 94 b 453 275 350 190 385 275 m 1210 747 b 1158 696 1181 747 1158 725 b 1210 644 1158 668 1181 644 b 1261 696 1238 644 1261 668 b 1210 747 1261 725 1238 747 m 694 533 b 642 482 665 533 642 510 b 694 431 642 453 665 431 b 746 482 722 431 746 453 b 694 533 746 510 722 533 m 949 390 b 897 339 919 390 897 368 b 949 288 897 311 919 288 b 1000 339 976 288 1000 311 b 949 390 1000 368 976 390 m 453 249 b 401 197 424 249 401 225 b 453 146 401 168 424 146 b 504 197 481 146 504 168 b 453 249 504 225 481 249 "},"D":{"ha":1517,"x_min":0,"x_max":0,"o":"m 732 867 b 774 867 747 874 761 874 l 1346 536 b 1346 465 1374 521 1374 481 l 1313 446 l 1313 235 b 1378 158 1350 229 1378 197 b 1299 79 1378 114 1343 79 b 1221 158 1256 79 1221 114 b 1286 235 1221 197 1249 229 l 1286 431 l 1111 329 l 1111 75 b 394 76 1111 -251 394 -249 l 394 329 l 160 465 b 160 536 132 481 132 521 m 172 514 b 172 488 163 508 163 493 l 746 158 b 760 158 750 156 756 156 l 1333 488 b 1333 514 1343 493 1343 508 l 760 843 b 746 843 756 846 750 846 m 1085 314 l 774 135 b 732 135 761 128 747 128 l 422 314 l 422 76 b 490 -62 422 22 444 -25 b 656 -132 536 -100 590 -122 b 851 -133 721 -142 786 -142 b 1017 -64 917 -124 971 -101 b 1085 75 1063 -26 1085 19 m 1299 210 b 1247 158 1271 210 1247 186 b 1299 106 1247 129 1271 106 b 1351 158 1328 106 1351 129 b 1299 210 1351 186 1328 210 "},"E":{"ha":1276,"x_min":0,"x_max":0,"o":"m 467 492 l 165 793 l 165 547 b 158 540 165 543 163 540 l 147 540 b 139 547 142 540 139 543 l 139 797 b 181 839 139 819 158 839 l 431 839 b 438 831 435 839 438 836 l 438 819 b 431 811 438 814 435 811 l 185 811 l 486 511 b 486 500 490 507 490 504 l 478 492 b 467 492 474 488 471 488 m 792 511 l 1093 811 l 847 811 b 840 819 843 811 840 814 l 840 831 b 847 839 840 836 843 839 l 1097 839 b 1138 797 1119 839 1138 819 l 1138 547 b 1131 540 1138 543 1135 540 l 1119 540 b 1111 547 1114 540 1111 543 l 1111 793 l 810 492 b 800 492 807 488 804 488 l 792 500 b 792 511 788 504 788 507 m 486 167 l 185 -133 l 431 -133 b 438 -142 435 -133 438 -136 l 438 -153 b 431 -160 438 -157 435 -160 l 181 -160 b 139 -119 158 -160 139 -142 l 139 131 b 147 138 139 135 142 138 l 158 138 b 165 131 163 138 165 135 l 165 -115 l 467 186 b 478 186 471 190 474 190 l 486 178 b 486 167 490 174 490 171 m 810 186 l 1111 -115 l 1111 131 b 1119 138 1111 135 1114 138 l 1131 138 b 1138 131 1135 138 1138 135 l 1138 -119 b 1097 -160 1138 -142 1119 -160 l 847 -160 b 840 -153 843 -160 840 -157 l 840 -142 b 847 -133 840 -136 843 -133 l 1093 -133 l 792 167 b 792 178 788 171 788 174 l 800 186 b 810 186 804 190 807 190 "},"F":{"ha":1264,"x_min":0,"x_max":0,"o":"m 165 822 l 467 521 l 467 767 b 474 774 467 771 469 774 l 486 774 b 493 767 490 774 493 771 l 493 517 b 451 476 493 494 475 476 l 203 476 b 194 483 197 476 194 479 l 194 494 b 203 503 194 500 197 503 l 447 503 l 147 804 b 147 814 143 807 143 810 l 156 822 b 165 822 158 826 161 826 m 1128 804 l 826 503 l 1071 503 b 1079 494 1076 503 1079 500 l 1079 483 b 1071 476 1079 479 1076 476 l 822 476 b 781 517 799 476 781 494 l 781 767 b 788 774 781 771 783 774 l 800 774 b 807 767 804 774 807 771 l 807 521 l 1108 822 b 1118 822 1113 826 1115 826 l 1128 814 b 1128 804 1131 810 1131 807 m 1108 -158 l 807 143 l 807 -103 b 800 -110 807 -107 804 -110 l 788 -110 b 781 -103 783 -110 781 -107 l 781 147 b 822 188 781 169 799 188 b 947 189 850 188 892 188 l 1071 189 b 1079 181 1076 189 1079 186 l 1079 169 b 1071 161 1079 164 1076 161 l 826 161 l 1128 -139 b 1128 -150 1131 -143 1131 -146 l 1118 -158 b 1108 -158 1115 -162 1113 -162 m 147 -139 l 447 161 l 203 161 b 194 169 197 161 194 164 l 194 181 b 203 188 194 185 197 188 l 451 188 b 493 147 475 188 493 169 l 493 -103 b 486 -110 493 -107 490 -110 l 474 -110 b 467 -103 469 -110 467 -107 l 467 143 l 165 -158 b 156 -158 161 -162 158 -162 l 147 -150 b 147 -139 143 -146 143 -143 "},"G":{"ha":1322,"x_min":0,"x_max":0,"o":"m 490 938 b 661 789 575 938 638 874 b 831 938 683 874 747 938 b 944 665 974 938 1044 765 b 875 621 924 644 900 631 l 1025 621 b 1183 464 1113 621 1183 551 l 1183 357 l 1097 357 l 1097 -93 b 939 -250 1097 -181 1026 -250 l 383 -250 b 225 -93 296 -250 225 -181 l 225 357 l 139 357 l 139 464 b 297 621 139 551 210 621 l 447 621 b 378 665 421 631 399 646 b 490 938 278 765 349 938 m 490 911 b 396 683 374 911 311 768 b 476 642 415 665 442 651 b 556 625 510 632 536 626 b 647 622 575 624 606 624 l 647 693 b 642 751 646 704 644 724 b 585 872 635 807 617 840 b 490 911 558 899 528 911 m 831 911 b 738 872 793 911 763 899 b 675 715 697 832 676 754 b 674 622 674 696 674 665 b 767 625 717 624 747 624 b 847 642 786 626 813 632 b 925 683 881 651 907 665 b 954 829 967 726 976 775 b 831 911 931 883 890 911 m 647 383 l 647 594 l 297 594 b 165 464 224 594 165 536 l 165 383 m 674 383 l 1157 383 l 1157 464 b 1025 594 1157 536 1097 594 l 674 594 m 647 -224 l 647 357 l 251 357 l 251 -93 b 383 -224 251 -165 311 -224 m 674 357 l 674 -224 l 939 -224 b 1071 -93 1011 -224 1071 -165 l 1071 357 "},"H":{"ha":1390,"x_min":0,"x_max":0,"o":"m 515 729 b 549 769 515 751 526 765 l 1201 906 b 1251 865 1228 911 1251 892 l 1251 83 b 1190 -25 1251 42 1231 6 b 1050 -67 1151 -53 1104 -67 b 908 -25 996 -67 949 -53 b 849 83 868 4 849 40 b 908 190 849 126 868 161 b 1050 233 949 219 996 233 b 1190 190 1104 233 1151 219 b 1225 157 1203 181 1215 169 l 1225 865 b 1207 881 1225 878 1219 882 l 554 744 b 542 729 546 743 542 738 l 542 -64 b 482 -172 542 -106 522 -142 b 340 -215 442 -201 394 -215 b 200 -172 286 -215 239 -201 b 139 -64 160 -143 139 -107 b 200 43 139 -21 160 14 b 340 86 239 72 286 86 b 482 43 394 86 442 72 b 515 10 496 33 507 22 m 1175 169 b 1050 207 1140 194 1099 207 b 925 169 1001 207 960 194 b 925 -3 858 121 858 43 b 1050 -40 960 -28 1001 -40 b 1175 -3 1099 -40 1140 -28 b 1175 169 1242 43 1242 121 m 465 21 b 340 58 431 46 389 58 b 215 21 292 58 250 46 b 215 -151 150 -25 150 -103 b 340 -189 250 -176 292 -189 b 465 -151 389 -189 431 -176 b 465 21 532 -103 532 -25 "},"I":{"ha":1086,"x_min":0,"x_max":0,"o":"m 571 881 b 542 874 560 892 542 890 l 542 -35 b 481 -143 542 -76 521 -112 b 340 -185 442 -171 394 -185 b 200 -143 286 -185 239 -171 b 200 72 118 -83 118 13 b 340 115 239 101 286 115 b 481 72 394 115 442 101 b 515 40 496 63 507 51 l 515 874 b 590 899 515 913 558 928 l 944 535 b 944 525 949 531 949 528 l 936 515 b 926 515 932 513 929 513 m 465 51 b 340 89 431 76 389 89 b 215 51 292 89 250 76 b 215 -121 149 3 149 -75 b 340 -158 250 -146 292 -158 b 465 -121 389 -158 431 -146 b 465 51 532 -72 532 3 "},"J":{"ha":1411,"x_min":0,"x_max":0,"o":"m 896 881 b 867 874 885 892 867 890 l 867 -35 b 806 -143 867 -76 846 -112 b 665 -185 767 -171 719 -185 b 524 -143 611 -185 564 -171 b 524 72 444 -83 444 13 b 665 115 564 101 611 115 b 806 72 719 115 767 101 b 840 40 818 64 829 53 l 840 874 b 914 899 840 913 885 928 l 1269 535 b 1269 525 1274 531 1274 528 l 1261 515 b 1250 515 1257 513 1254 513 m 589 757 b 596 764 593 757 596 760 l 596 776 b 589 783 596 781 593 783 l 146 783 b 139 776 142 783 139 781 l 139 764 b 146 757 139 760 142 757 m 589 542 b 596 549 593 542 596 544 l 596 561 b 589 568 596 565 593 568 l 146 568 b 139 561 142 568 139 565 l 139 549 b 146 542 139 544 142 542 m 589 324 b 596 332 593 324 596 326 l 596 343 b 589 350 596 347 593 350 l 146 350 b 139 343 142 350 139 347 l 139 332 b 146 324 139 326 142 324 m 790 51 b 665 89 756 76 714 89 b 540 51 617 89 575 76 b 540 -121 474 3 474 -72 b 665 -158 575 -146 617 -158 b 790 -121 714 -158 756 -146 b 790 51 856 -72 856 3 "},"K":{"ha":1381,"x_min":0,"x_max":0,"o":"m 335 557 b 631 533 429 590 528 582 l 839 742 b 847 872 832 788 835 831 b 917 888 857 901 894 910 l 1235 569 b 1218 501 1257 547 1247 511 b 1089 493 1175 488 1132 485 l 879 283 b 904 -12 928 182 936 83 b 836 -28 894 -42 858 -50 l 586 221 l 165 -203 b 156 -203 163 -207 160 -207 l 147 -194 b 147 -185 143 -190 143 -187 l 568 240 l 318 489 b 335 557 297 511 306 547 m 1069 525 b 1210 526 1115 511 1161 511 b 1217 551 1221 528 1224 544 l 897 869 b 874 864 890 876 878 874 b 1069 525 824 721 931 564 m 656 521 b 776 429 701 494 742 464 b 867 308 814 392 843 351 l 1058 500 b 926 581 1008 515 964 543 b 847 713 889 618 863 661 m 757 410 b 561 532 700 467 635 508 b 343 532 486 556 414 556 b 338 508 332 531 328 515 l 854 -10 b 879 -4 861 -17 878 -14 b 879 214 903 67 903 139 b 757 410 856 288 814 353 "},"L":{"ha":1615,"x_min":0,"x_max":0,"o":"m 1290 869 b 1422 815 1342 869 1385 851 b 1476 682 1458 778 1476 733 l 1476 3 b 1422 -129 1476 -49 1458 -93 b 1290 -183 1385 -165 1342 -183 l 325 -183 b 193 -129 274 -183 229 -165 b 139 3 157 -93 139 -49 l 139 682 b 194 815 139 733 157 778 b 325 869 231 851 274 869 m 325 843 b 213 796 282 843 244 828 b 165 682 181 764 165 726 l 165 188 l 500 525 b 556 525 515 542 540 540 l 908 183 b 928 183 915 176 922 176 l 1108 365 b 1164 367 1124 382 1147 382 l 1450 104 l 1450 682 b 1403 796 1450 726 1435 764 b 1290 843 1371 828 1333 843 m 1061 722 b 1061 569 1104 679 1104 613 b 910 569 1018 526 951 526 b 910 722 868 613 868 679 b 1061 722 951 765 1018 765 m 985 728 b 904 646 940 728 904 690 b 985 564 904 601 940 564 b 1067 646 1031 564 1067 601 b 985 728 1067 690 1031 728 m 165 151 l 165 3 b 213 -110 165 -40 181 -78 b 325 -157 244 -142 282 -157 l 1290 -157 b 1403 -110 1333 -157 1371 -142 b 1450 3 1435 -78 1450 -40 l 1450 68 l 1146 347 b 1126 347 1139 353 1132 353 l 947 165 b 890 164 932 149 906 149 l 538 507 b 518 507 531 514 525 514 l 167 151 "},"M":{"ha":1494,"x_min":0,"x_max":0,"o":"m 549 792 l 931 932 b 960 932 940 936 950 936 l 1333 794 b 1356 764 1349 789 1356 779 l 1356 -203 b 1313 -233 1356 -226 1335 -240 l 946 -99 l 563 -239 b 535 -239 553 -243 543 -243 l 161 -101 b 139 -71 146 -97 139 -86 l 139 896 b 182 926 139 919 160 933 m 932 -75 l 932 904 l 561 768 l 561 -211 m 958 904 l 958 -75 l 1319 -207 b 1328 -203 1325 -210 1328 -208 l 1329 764 b 1325 769 1329 765 1328 768 m 165 -71 b 168 -76 165 -72 167 -75 l 535 -211 l 535 768 l 174 901 b 165 894 168 903 165 900 "},"N":{"ha":1450,"x_min":0,"x_max":0,"o":"m 707 933 b 743 933 719 939 732 939 l 1288 672 b 1288 597 1319 657 1319 613 l 743 338 b 707 338 732 332 719 332 l 163 597 b 163 672 131 613 131 657 m 174 649 b 174 622 163 643 163 626 l 719 361 b 732 361 724 358 728 358 l 1276 622 b 1276 649 1288 626 1288 643 l 732 910 b 719 910 728 911 724 911 m 1142 450 b 1132 447 1138 453 1133 451 l 1126 436 b 1129 426 1124 432 1125 429 l 1276 357 b 1276 329 1288 351 1288 335 l 732 68 b 719 68 728 67 724 67 l 174 329 b 174 357 163 335 163 351 l 321 426 b 325 436 325 428 326 432 l 319 447 b 310 450 317 451 314 453 l 163 381 b 163 306 131 365 131 321 l 707 44 b 743 44 719 39 732 39 l 1288 306 b 1288 381 1319 321 1319 365 m 1288 88 b 1288 14 1319 75 1319 29 l 743 -247 b 707 -247 732 -253 719 -253 l 163 14 b 163 88 131 29 131 75 l 310 158 b 319 156 314 161 317 160 l 325 144 b 321 135 326 140 325 136 l 174 64 b 174 38 163 58 163 43 l 719 -224 b 732 -224 724 -225 728 -225 l 1276 38 b 1276 64 1288 43 1288 58 l 1129 135 b 1126 144 1125 138 1125 140 l 1132 156 b 1142 158 1133 160 1138 161 "},"O":{"ha":1438,"x_min":0,"x_max":0,"o":"m 328 753 b 738 922 440 865 576 922 b 1149 753 900 922 1036 865 b 1318 343 1261 640 1318 504 b 1149 -68 1318 182 1261 44 b 738 -237 1036 -181 899 -237 b 328 -68 578 -237 440 -181 b 158 343 215 44 158 181 b 328 753 158 504 215 640 m 463 513 b 725 482 547 494 635 483 l 725 896 b 556 783 657 892 600 854 b 463 513 510 713 479 622 m 751 482 b 1014 513 842 483 929 494 b 922 783 997 622 967 713 b 751 896 876 854 819 892 m 239 582 b 436 518 301 556 368 535 b 613 882 465 697 524 819 b 239 582 447 844 311 733 m 1040 518 b 1238 582 1111 536 1178 558 b 864 882 1165 733 1029 844 b 1040 518 953 819 1011 697 m 228 128 b 432 193 299 156 367 178 b 432 492 419 292 419 392 b 228 558 364 508 296 531 b 228 128 168 415 168 271 m 1044 193 b 1249 128 1110 178 1178 156 b 1249 558 1308 271 1308 415 b 1044 492 1181 531 1113 508 b 1044 193 1057 393 1057 293 m 458 199 b 725 229 551 219 640 229 l 725 456 b 458 486 635 457 546 468 b 458 199 447 390 447 294 m 751 229 b 1018 199 836 229 925 219 b 1018 486 1029 294 1029 390 b 751 456 931 468 842 457 m 725 203 b 463 172 642 203 554 193 b 556 -97 479 64 510 -26 b 725 -211 600 -168 657 -207 m 1014 172 b 751 203 922 193 835 203 l 751 -211 b 922 -97 819 -207 876 -168 b 1014 172 967 -26 997 64 m 436 167 b 238 103 376 153 311 132 b 613 -197 310 -49 450 -160 b 436 167 522 -132 463 -10 m 1238 103 b 1040 167 1167 132 1100 153 b 864 -197 1013 -12 954 -133 b 1238 103 1029 -160 1167 -49 "},"P":{"ha":1446,"x_min":0,"x_max":0,"o":"m 1096 942 b 1246 881 1154 942 1204 921 b 1307 732 1286 839 1307 789 l 1307 -37 b 1246 -186 1307 -94 1286 -144 b 1096 -247 1204 -226 1154 -247 l 349 -247 b 201 -186 292 -247 242 -226 b 139 -37 160 -144 139 -94 l 139 732 b 201 881 139 789 160 839 b 349 942 242 921 292 942 m 349 915 b 219 861 299 915 256 897 b 165 732 183 825 165 782 l 165 -37 b 219 -168 165 -89 183 -132 b 349 -221 256 -203 299 -221 l 1096 -221 b 1226 -168 1147 -221 1190 -203 b 1279 -37 1261 -132 1279 -89 l 1279 732 b 1226 861 1279 782 1261 825 b 1096 915 1190 897 1147 915 m 310 763 b 310 644 276 729 276 676 b 428 644 342 611 394 611 b 428 763 460 676 460 729 b 310 763 394 794 342 794 m 996 763 b 996 644 963 729 963 676 b 1115 644 1029 611 1082 611 b 1115 763 1147 676 1147 729 b 996 763 1082 794 1029 794 m 411 746 b 411 661 435 722 435 683 b 326 661 388 638 349 638 b 326 746 303 683 303 722 b 411 746 349 769 388 769 m 1099 746 b 1099 661 1121 722 1121 683 b 1013 661 1075 638 1036 638 b 1013 746 989 683 989 722 b 1099 746 1036 769 1075 769 m 310 524 b 310 406 276 490 276 438 b 428 406 342 372 394 372 b 428 524 460 438 460 490 b 310 524 394 556 342 556 m 996 524 b 996 406 963 490 963 438 b 1115 406 1029 372 1082 372 b 1115 524 1147 438 1147 490 b 996 524 1082 556 1029 556 m 411 507 b 411 421 435 483 435 444 b 326 421 388 397 349 397 b 326 507 303 444 303 483 b 411 507 349 529 388 529 m 1099 507 b 1099 421 1121 483 1121 444 b 1013 421 1075 397 1036 397 b 1013 507 989 444 989 483 b 1099 507 1036 529 1075 529 m 310 290 b 310 172 276 257 276 204 b 428 172 342 139 394 139 b 428 290 460 204 460 257 b 310 290 394 324 342 324 m 1056 315 b 971 231 1007 315 971 279 b 1115 172 971 157 1064 121 b 1056 315 1165 222 1129 315 m 411 274 b 411 189 435 250 435 211 b 326 189 388 165 349 165 b 326 274 303 211 303 250 b 411 274 349 297 388 297 m 1099 274 b 1099 189 1121 250 1121 211 b 1013 189 1075 165 1036 165 b 1013 274 989 211 989 250 b 1099 274 1036 297 1075 297 m 310 56 b 310 -64 276 22 276 -31 b 428 -64 342 -96 394 -96 b 428 56 460 -31 460 22 b 310 56 394 88 342 88 m 996 56 b 996 -64 963 22 963 -31 b 1115 -64 1029 -96 1082 -96 b 1115 56 1147 -31 1147 22 b 996 56 1082 88 1029 88 m 411 39 b 411 -47 435 15 435 -24 b 326 -47 388 -69 349 -69 b 326 39 303 -24 303 15 b 411 39 349 63 388 63 m 1099 39 b 1099 -47 1121 15 1121 -24 b 1013 -47 1075 -69 1036 -69 b 1013 39 989 -24 989 15 b 1099 39 1036 63 1075 63 "},"Q":{"ha":1315,"x_min":0,"x_max":0,"o":"m 322 836 b 314 843 317 836 314 839 l 314 854 b 322 863 314 860 317 863 b 925 611 554 863 768 771 b 1176 8 1085 454 1176 240 b 1168 0 1176 3 1174 0 l 1157 0 b 1150 8 1153 0 1150 3 b 907 593 1150 226 1063 438 b 322 836 751 749 543 835 m 847 8 b 839 0 847 3 844 0 l 828 0 b 821 8 824 0 821 3 b 674 361 821 146 772 263 b 322 507 576 457 460 506 b 314 514 317 507 314 510 l 314 525 b 322 533 314 531 317 533 b 693 379 467 533 590 482 b 847 8 796 275 847 151 m 193 138 b 139 8 157 101 139 58 b 193 -122 139 -43 157 -86 b 322 -175 228 -157 271 -175 b 451 -122 372 -175 415 -157 b 504 8 486 -86 504 -43 b 451 136 504 58 486 101 b 322 190 415 172 372 190 b 193 138 271 190 228 172 m 165 8 b 322 164 165 94 236 164 b 478 8 408 164 478 94 b 322 -149 478 -79 408 -149 b 165 8 236 -149 165 -79 "},"R":{"ha":1746,"x_min":0,"x_max":0,"o":"m 165 497 b 156 497 163 493 160 493 l 147 506 b 147 517 143 510 143 513 b 878 814 347 713 610 815 b 1610 517 1149 815 1410 713 b 1610 506 1614 513 1614 510 l 1601 497 b 1592 497 1597 493 1594 493 b 878 788 1396 688 1140 789 b 165 497 617 789 361 688 m 1339 244 b 879 431 1213 368 1058 431 b 418 244 699 431 544 368 b 408 244 414 242 411 242 l 399 253 b 400 264 396 257 396 260 b 704 436 486 349 588 406 b 1053 436 819 467 936 467 b 1357 264 1169 406 1271 349 b 1358 253 1361 260 1361 257 l 1349 244 b 1339 244 1346 242 1343 242 m 1069 65 b 1074 4 1088 50 1090 21 l 911 -158 b 853 -158 896 -174 869 -174 l 690 4 b 694 65 674 21 676 50 b 882 131 749 108 811 131 b 1069 65 953 131 1015 108 m 711 44 b 710 22 703 38 703 29 l 872 -139 b 893 -139 879 -146 886 -146 l 1056 24 b 1053 44 1063 32 1061 39 b 882 106 1004 85 947 106 b 711 44 817 106 760 85 "},"S":{"ha":1011,"x_min":0,"x_max":0,"o":"m 876 150 b 510 -222 871 -94 689 -228 b 143 150 331 -228 149 -94 b 244 510 140 249 174 368 b 475 899 315 651 392 781 b 544 899 492 922 528 922 b 775 510 628 781 704 651 b 876 150 846 368 879 249 m 851 151 b 794 399 853 217 835 300 b 665 665 754 497 711 586 b 522 883 619 743 571 815 b 497 883 517 893 503 893 b 225 399 399 749 304 597 b 168 151 185 300 167 217 b 510 -196 174 -76 343 -201 b 851 151 676 -201 846 -76 "},"T":{"ha":1456,"x_min":0,"x_max":0,"o":"m 139 364 b 324 797 139 549 213 704 b 728 942 433 890 579 942 b 1133 797 876 942 1022 890 b 1317 364 1243 704 1317 549 l 1317 76 b 1235 -153 1317 -14 1289 -90 b 1018 -256 1181 -215 1108 -249 b 974 -215 994 -257 974 -239 l 974 367 b 1018 408 974 390 994 410 b 1290 214 1144 399 1244 329 l 1290 364 b 1114 778 1290 542 1219 689 b 728 915 1008 867 868 915 b 342 778 588 915 447 867 b 165 364 236 689 165 542 l 165 214 b 436 408 211 329 313 399 b 481 367 460 410 481 390 l 481 -215 b 436 -256 481 -239 460 -257 b 221 -153 346 -249 275 -215 b 139 76 167 -90 139 -14 m 439 -229 b 454 -215 446 -231 454 -225 l 454 367 b 439 382 454 376 449 382 b 240 286 357 375 290 343 b 165 76 190 229 165 158 b 240 -133 165 -6 190 -76 b 439 -229 290 -190 357 -222 m 1017 -229 b 1215 -133 1099 -222 1165 -190 b 1290 76 1265 -76 1290 -6 b 1215 286 1290 158 1265 229 b 1017 382 1165 343 1099 375 b 1000 367 1006 382 1000 376 l 1000 -215 b 1017 -229 1000 -225 1010 -231 "},"U":{"ha":1393,"x_min":0,"x_max":0,"o":"m 422 -192 b 221 -89 342 -183 275 -149 b 139 122 167 -29 139 42 l 139 394 b 314 808 139 571 208 719 b 697 946 418 896 557 946 b 1081 808 836 946 975 896 b 1254 394 1185 719 1254 571 l 1254 -87 b 1169 -325 1254 -179 1226 -258 b 963 -468 1113 -390 1043 -439 b 707 -512 882 -497 797 -512 b 621 -301 601 -519 543 -372 b 831 -389 689 -222 838 -282 b 790 -481 831 -426 817 -457 b 1228 -87 1007 -456 1228 -329 l 1228 -4 b 971 -192 1183 -106 1086 -179 b 925 -151 944 -196 925 -175 l 925 396 b 971 436 925 419 944 440 b 1228 249 1086 424 1183 350 l 1228 394 b 697 918 1228 743 963 918 b 165 394 431 918 165 743 l 165 249 b 422 436 210 350 307 424 b 468 396 449 440 468 419 l 468 -151 b 422 -192 468 -175 449 -196 m 442 396 b 425 410 442 407 436 411 b 240 317 351 403 289 371 b 165 122 190 261 165 196 b 240 -72 165 49 190 -17 b 425 -165 290 -126 351 -158 b 442 -151 436 -167 442 -162 m 951 -151 b 968 -165 951 -162 957 -167 b 1153 -72 1042 -158 1103 -126 b 1228 122 1203 -17 1228 49 b 1154 317 1228 196 1203 261 b 968 410 1104 371 1042 403 b 951 396 957 411 951 407 m 639 -321 b 639 -458 601 -358 601 -419 b 776 -458 676 -496 738 -496 b 776 -321 814 -419 814 -358 b 639 -321 738 -282 676 -282 "},"V":{"ha":1442,"x_min":0,"x_max":0,"o":"m 332 315 b 196 372 278 315 233 335 b 139 507 158 410 139 454 l 139 622 b 196 758 139 675 158 721 b 332 815 233 796 278 815 l 671 815 l 671 964 b 678 972 671 969 674 972 l 690 972 b 697 964 694 972 697 969 l 697 815 l 1035 815 b 1061 804 1044 815 1054 811 l 1290 589 b 1290 533 1307 574 1307 549 l 1061 325 b 1035 315 1054 318 1046 315 l 697 315 l 697 -258 b 690 -267 697 -264 694 -267 l 678 -267 b 671 -258 674 -267 671 -264 l 671 315 m 332 789 b 215 740 286 789 247 772 b 165 622 182 708 165 668 l 165 507 b 214 390 165 461 182 422 b 332 342 246 358 286 342 l 1035 342 b 1043 344 1036 342 1039 343 l 1274 553 b 1272 569 1279 558 1279 564 l 1043 785 b 1035 789 1040 788 1038 789 "},"W":{"ha":1569,"x_min":0,"x_max":0,"o":"m 860 851 l 860 964 b 867 972 860 969 863 972 l 879 972 b 886 964 883 972 886 969 l 886 851 l 1283 851 b 1304 843 1292 851 1299 849 l 1442 706 b 1442 665 1454 693 1454 679 l 1304 528 b 1283 519 1297 522 1290 519 l 482 519 b 363 640 417 519 363 574 l 363 731 b 482 851 363 797 417 851 m 1285 825 l 482 825 b 389 731 431 825 389 782 l 389 640 b 482 547 389 589 431 547 l 1285 547 l 1424 686 m 329 63 b 308 71 321 63 314 65 l 167 213 b 167 254 154 225 154 239 l 308 396 b 329 404 314 401 321 404 l 1160 404 b 1283 279 1228 404 1283 347 l 1283 186 b 1160 63 1283 118 1228 63 l 886 63 l 886 -281 b 879 -289 886 -286 883 -289 l 867 -289 b 860 -281 863 -289 860 -286 l 860 63 m 1160 89 b 1257 186 1214 89 1257 132 l 1257 279 b 1160 378 1257 333 1214 378 l 328 378 l 183 233 l 328 89 "},"X":{"ha":1639,"x_min":0,"x_max":0,"o":"m 936 -171 b 906 -186 929 -181 918 -186 l 768 -186 b 738 -171 756 -186 744 -181 l 165 539 b 163 588 153 554 151 569 l 336 849 b 371 868 343 861 356 868 l 1301 868 b 1336 849 1317 868 1328 861 l 1510 588 b 1507 539 1521 571 1519 554 m 382 842 l 578 583 l 807 842 m 865 842 l 1094 583 l 1290 842 m 1065 576 l 836 835 l 606 576 m 550 576 l 356 832 l 186 576 m 1317 832 l 1122 576 l 1485 576 m 567 550 l 190 550 l 758 -154 b 768 -160 760 -158 763 -160 l 793 -160 m 1076 550 l 594 550 l 821 -160 l 853 -160 m 1482 550 l 1104 550 l 881 -160 l 906 -160 b 917 -154 910 -160 914 -158 "},"Y":{"ha":1424,"x_min":0,"x_max":0,"o":"m 1117 750 b 1285 344 1229 638 1285 503 b 1117 -61 1285 186 1229 51 b 711 -229 1004 -174 869 -229 b 307 -61 553 -229 418 -174 b 139 344 194 51 139 186 b 307 750 139 503 194 638 b 711 917 418 861 553 917 b 1117 750 869 917 1004 861 m 325 731 b 165 344 218 624 165 496 b 325 -43 165 193 218 65 b 711 -203 432 -150 560 -203 b 1099 -43 863 -203 992 -150 b 1258 344 1206 64 1258 193 b 1099 731 1258 496 1206 624 b 711 890 992 838 863 890 b 325 731 560 890 432 838 m 415 106 b 424 57 406 88 408 71 b 472 47 438 42 454 39 l 819 217 b 839 236 828 221 835 228 l 1008 583 b 1000 633 1017 601 1014 618 b 950 640 985 647 968 650 l 604 472 b 583 451 594 468 588 461 m 607 440 b 615 449 608 444 611 447 l 963 617 b 983 594 975 624 990 610 l 815 247 b 808 240 814 244 811 242 l 461 72 b 439 93 446 65 432 81 m 711 417 b 639 344 672 417 639 383 b 711 272 639 304 672 272 b 783 344 751 272 783 304 b 711 417 783 383 751 417 m 711 393 b 760 344 739 393 760 371 b 711 296 760 317 739 296 b 663 344 685 296 663 317 b 711 393 663 371 685 393 "},"Z":{"ha":1396,"x_min":0,"x_max":0,"o":"m 1008 904 b 1185 831 1076 904 1136 879 b 1257 654 1233 782 1257 722 l 1257 36 b 1185 -140 1257 -32 1233 -92 b 1008 -214 1136 -189 1076 -214 l 389 -214 b 213 -140 321 -214 261 -189 b 139 36 164 -92 139 -32 l 139 654 b 213 831 139 722 164 782 b 389 904 261 879 321 904 m 389 878 b 231 813 326 878 274 856 b 165 654 188 769 165 717 l 165 36 b 231 -122 165 -26 188 -79 b 389 -187 274 -165 326 -187 l 1008 -187 b 1165 -122 1069 -187 1122 -165 b 1231 36 1208 -79 1231 -26 l 1231 654 b 1165 813 1231 717 1208 769 b 1008 878 1122 856 1069 878 m 618 557 b 625 564 622 557 625 560 l 625 576 b 618 583 625 581 622 583 l 492 583 l 492 710 b 485 717 492 714 489 717 l 472 717 b 465 710 468 717 465 714 l 465 583 l 339 583 b 332 576 335 583 332 581 l 332 564 b 339 557 332 560 335 557 l 465 557 l 465 431 b 472 424 465 426 468 424 l 485 424 b 492 431 489 424 492 426 l 492 557 m 1057 557 b 1064 564 1061 557 1064 560 l 1064 576 b 1057 583 1064 581 1061 583 l 804 583 b 796 576 799 583 796 581 l 796 564 b 804 557 796 560 799 557 m 594 225 b 594 236 599 229 599 232 l 586 244 b 576 244 583 249 581 249 l 479 146 l 381 244 b 371 244 376 249 374 249 l 363 236 b 363 225 358 232 358 229 l 460 128 l 363 29 b 363 19 358 26 358 24 l 371 11 b 381 11 374 7 376 7 l 479 108 l 576 11 b 586 11 581 7 583 7 l 594 19 b 594 29 599 24 599 26 l 497 128 m 1057 183 b 1064 190 1061 183 1064 186 l 1064 203 b 1057 210 1064 207 1061 210 l 804 210 b 796 203 799 210 796 207 l 796 190 b 804 183 796 186 799 183 m 1057 46 b 1064 53 1061 46 1064 49 l 1064 64 b 1057 72 1064 69 1061 72 l 804 72 b 796 64 799 72 796 69 l 796 53 b 804 46 796 49 799 46 "},"a":{"ha":1560,"x_min":0,"x_max":0,"o":"m 1217 810 b 1361 750 1274 810 1321 790 b 1421 604 1401 710 1421 661 l 1421 75 b 1361 -69 1421 18 1401 -29 b 1217 -129 1321 -110 1274 -129 l 343 -129 b 199 -69 286 -129 239 -110 b 139 75 158 -29 139 18 l 139 604 b 199 750 139 661 158 710 b 343 810 239 790 286 810 m 343 783 b 235 746 303 783 267 771 l 668 308 b 781 264 697 279 735 264 b 892 308 825 264 863 279 l 1325 746 b 1217 783 1294 771 1258 783 m 596 343 l 215 728 b 165 604 182 694 165 653 l 165 75 b 211 -44 165 29 181 -11 m 963 343 l 1349 -44 b 1394 75 1379 -10 1394 31 l 1394 604 b 1344 728 1394 653 1378 694 m 615 325 l 231 -62 b 343 -103 263 -89 300 -103 l 1217 -103 b 1329 -62 1260 -103 1297 -89 l 944 324 l 911 290 b 781 238 876 256 832 238 b 650 290 729 236 685 254 "},"b":{"ha":1468,"x_min":0,"x_max":0,"o":"m 613 936 b 856 936 686 1010 783 1010 l 1267 522 b 1329 381 1308 483 1329 436 l 1329 -110 b 1274 -246 1329 -162 1311 -208 b 1138 -301 1236 -283 1190 -301 l 329 -301 b 196 -246 278 -301 233 -283 b 139 -110 158 -208 139 -162 l 139 381 b 203 522 139 435 160 482 m 1239 513 l 838 918 b 631 917 772 979 692 978 l 229 513 l 581 157 l 610 185 b 733 235 642 218 683 235 b 856 186 782 235 824 218 l 886 156 m 165 -110 b 207 -219 165 -153 179 -189 l 563 139 l 210 493 b 165 381 181 461 165 424 m 1260 -219 b 1303 -110 1289 -187 1303 -151 l 1303 381 b 1257 493 1303 424 1288 461 l 904 138 m 226 -237 b 329 -274 257 -261 292 -274 l 1138 -274 b 1242 -237 1178 -274 1213 -261 l 838 167 b 733 208 810 194 775 208 b 628 167 690 208 656 194 "},"c":{"ha":1469,"x_min":0,"x_max":0,"o":"m 1075 717 l 1267 522 b 1331 381 1310 485 1331 438 l 1331 -110 b 1275 -246 1331 -162 1313 -208 b 1139 -301 1238 -283 1192 -301 l 331 -301 b 196 -246 278 -301 233 -283 b 139 -110 158 -208 139 -162 l 139 381 b 203 522 139 432 160 479 l 393 715 l 393 771 b 433 813 393 793 411 813 l 492 813 l 613 936 b 856 936 689 1013 779 1013 l 979 813 l 1035 813 b 1075 771 1057 813 1075 793 m 529 813 l 942 813 l 838 918 b 632 918 772 983 697 983 m 419 319 l 582 157 l 610 185 b 733 235 642 218 683 235 b 857 185 783 235 825 218 l 886 156 l 1049 318 l 1049 771 b 1035 786 1049 781 1044 786 l 433 786 b 419 771 424 786 419 781 m 1075 346 l 1240 513 l 1075 679 m 393 678 l 229 513 l 393 347 m 211 493 b 165 381 181 461 165 424 l 165 -110 b 207 -219 165 -150 179 -187 l 563 139 m 906 138 l 1261 -219 b 1304 -110 1290 -187 1304 -151 l 1304 381 b 1258 493 1304 424 1289 461 m 226 -237 b 331 -274 258 -261 293 -274 l 1139 -274 b 1242 -237 1179 -274 1213 -261 l 838 167 b 733 208 810 194 775 208 b 629 167 692 208 657 194 "},"d":{"ha":1293,"x_min":0,"x_max":0,"o":"m 650 -246 b 238 140 454 -189 308 -42 b 158 718 165 322 140 519 b 197 756 160 739 176 756 b 432 815 274 757 353 778 b 631 958 511 853 576 901 b 690 958 647 976 674 976 b 890 815 744 901 811 853 b 1124 756 969 778 1047 757 b 1163 718 1144 756 1161 739 b 1085 140 1181 519 1156 322 b 672 -246 1013 -42 867 -189 b 650 -246 664 -249 657 -249 m 657 -221 b 664 -221 660 -222 663 -222 b 1136 717 1057 -103 1171 350 b 1124 729 1136 725 1132 729 b 879 792 1043 731 961 751 b 671 940 796 831 726 881 b 650 940 664 947 657 947 b 443 792 594 881 525 831 b 197 729 360 751 278 731 b 189 725 194 729 192 728 b 185 717 186 724 185 721 b 657 -221 150 350 264 -103 m 685 183 b 619 181 672 157 635 154 l 489 383 b 492 394 488 388 488 392 l 501 400 b 511 397 506 403 510 401 b 581 290 526 372 550 336 b 642 194 610 244 631 213 b 663 194 646 188 657 188 l 860 571 b 869 574 861 575 865 575 l 879 568 b 882 558 883 567 883 563 "},"e":{"ha":1293,"x_min":0,"x_max":0,"o":"m 649 -246 b 238 140 454 -189 308 -42 b 158 718 165 322 140 519 b 197 756 160 739 176 756 b 432 815 274 757 353 778 b 631 958 511 853 576 901 b 690 958 647 976 674 976 b 890 815 744 900 811 853 b 1124 756 969 778 1047 757 b 1163 718 1144 756 1161 739 b 1085 140 1181 519 1156 322 b 671 -246 1013 -42 867 -189 b 649 -246 664 -249 657 -249 m 657 -221 b 664 -221 660 -222 663 -222 b 1136 717 1057 -103 1171 350 b 1124 729 1136 725 1132 729 b 879 792 1043 731 961 751 b 671 940 796 831 726 881 b 650 940 664 947 657 947 b 443 792 594 881 525 831 b 197 729 360 751 278 731 b 189 725 194 729 192 728 b 185 717 186 724 185 721 b 657 -221 150 350 264 -103 m 660 343 l 504 188 b 494 188 501 183 499 183 l 486 196 b 486 206 482 200 482 203 l 642 361 l 486 518 b 486 528 482 521 482 524 l 494 536 b 504 536 499 540 501 540 l 660 381 l 815 536 b 826 536 819 540 822 540 l 835 528 b 835 518 839 524 839 521 l 679 361 l 835 206 b 835 196 839 203 839 200 l 826 188 b 815 188 822 183 819 183 "},"f":{"ha":1582,"x_min":0,"x_max":0,"o":"m 219 282 b 414 363 274 336 338 363 b 594 297 482 363 543 340 b 686 131 646 253 676 197 b 896 131 751 164 831 164 b 989 297 906 197 938 253 b 1168 363 1040 340 1100 363 b 1363 282 1244 363 1308 336 l 1217 693 b 1132 813 1192 757 1168 793 b 1085 831 1113 821 1111 824 b 1058 838 1072 833 1063 836 b 992 850 1047 840 1004 849 b 986 858 988 851 986 854 l 989 871 b 997 876 990 876 993 878 b 1144 835 1074 861 1124 847 b 1242 701 1186 813 1218 768 l 1418 204 b 1443 88 1435 157 1443 118 b 1363 -107 1443 11 1417 -53 b 1168 -187 1308 -161 1244 -187 b 974 -107 1092 -187 1028 -161 b 892 88 919 -53 892 11 b 893 103 892 94 892 99 b 689 103 831 138 751 138 b 690 88 690 99 690 94 b 610 -107 690 11 664 -53 b 414 -187 556 -161 490 -187 b 219 -107 338 -187 274 -161 b 139 88 165 -53 139 11 b 164 204 139 114 147 153 l 340 701 b 450 840 368 782 400 819 b 564 872 486 856 508 861 b 585 876 569 874 579 876 b 593 871 589 878 592 876 l 596 858 b 590 850 596 854 594 851 b 525 838 578 849 535 840 b 497 831 519 836 510 833 b 451 813 471 824 471 821 b 365 693 414 793 390 757 m 590 264 b 414 336 542 313 482 336 b 239 264 346 336 288 313 b 165 88 190 215 165 156 b 239 -89 165 19 190 -40 b 414 -161 288 -137 346 -161 b 590 -89 482 -161 542 -137 b 664 88 639 -40 664 19 b 590 264 664 156 639 215 m 1344 264 b 1168 336 1296 313 1236 336 b 992 264 1100 336 1040 313 b 918 88 943 215 918 156 b 992 -89 918 19 943 -40 b 1168 -161 1040 -137 1100 -161 b 1344 -89 1236 -161 1296 -137 b 1417 88 1393 -40 1417 19 b 1344 264 1417 156 1393 215 "},"g":{"ha":1460,"x_min":0,"x_max":0,"o":"m 644 854 b 936 915 729 936 826 957 b 1274 743 1081 861 1193 804 b 1383 564 1356 681 1393 621 b 1128 429 1372 469 1246 449 b 911 342 1049 417 957 388 l 796 228 b 688 -106 722 154 708 0 b 575 -244 671 -182 636 -237 b 396 -136 518 -254 458 -218 b 224 201 339 -60 281 53 b 285 494 181 313 201 410 m 304 476 b 249 211 228 400 210 313 b 417 -119 304 64 360 -46 b 571 -219 474 -192 525 -225 b 676 -31 632 -210 665 -124 b 708 121 681 15 692 67 b 778 246 725 175 749 217 l 892 361 b 1018 431 921 390 964 414 b 1169 464 1072 447 1124 458 b 1357 568 1263 474 1350 507 b 1258 722 1364 614 1332 665 b 926 892 1183 779 1072 835 b 663 835 826 929 739 911 m 792 736 b 714 658 846 689 761 604 b 792 736 660 706 744 790 m 908 753 b 964 697 938 753 964 726 b 908 642 964 668 938 642 b 908 753 836 636 836 758 m 729 724 b 778 672 696 690 744 639 b 729 724 811 706 760 754 m 908 733 b 908 661 861 733 861 661 b 908 733 953 661 953 733 m 792 589 b 792 510 814 567 814 531 b 714 510 769 488 736 488 b 714 589 692 531 692 567 b 792 589 736 610 769 610 m 908 604 b 964 549 938 604 964 581 b 908 493 964 517 938 493 b 908 604 836 488 836 610 m 729 575 b 778 524 696 542 744 492 b 729 575 813 556 760 606 m 908 585 b 908 513 861 585 861 513 b 908 585 953 513 953 585 m 408 394 b 408 404 404 399 404 401 l 417 413 b 426 413 421 415 424 415 l 507 333 l 586 413 b 596 413 590 417 593 417 l 606 404 b 606 394 608 400 608 397 l 525 314 l 606 235 b 606 224 608 231 608 228 l 596 215 b 586 215 593 213 590 213 l 507 296 l 426 215 b 417 215 424 214 421 214 l 408 224 b 408 235 404 228 404 231 l 488 314 "},"h":{"ha":1354,"x_min":0,"x_max":0,"o":"m 742 -136 b 593 -197 701 -176 651 -197 b 444 -136 535 -197 485 -176 l 200 110 b 139 257 160 150 139 199 b 200 406 139 315 160 365 l 661 867 b 690 879 668 875 678 879 l 1175 881 b 1215 839 1197 881 1215 861 l 1215 354 b 1203 325 1215 342 1211 332 m 1185 343 l 1189 354 l 1189 839 b 1175 854 1189 849 1185 854 l 690 853 l 679 849 l 218 388 b 165 257 183 351 165 308 b 218 128 165 206 183 163 l 464 -118 b 593 -171 499 -153 542 -171 b 724 -118 644 -171 688 -153 m 1013 685 b 838 685 964 733 886 733 b 838 511 789 636 789 558 b 1013 511 886 464 964 464 b 1013 685 1061 558 1061 636 m 994 667 b 925 501 1056 610 1008 496 b 829 597 874 501 829 546 b 994 667 824 681 938 728 "},"i":{"ha":1582,"x_min":0,"x_max":0,"o":"m 790 914 b 1222 792 936 914 1092 869 b 1443 425 1353 714 1443 579 b 1222 58 1443 271 1353 136 b 790 -64 1092 -19 936 -64 b 681 -57 757 -64 721 -61 b 393 -229 624 -146 528 -203 b 342 -172 347 -239 318 -210 b 396 36 386 -99 404 -29 b 139 425 244 124 139 264 b 360 792 139 579 231 714 b 790 914 489 869 646 914 m 790 888 b 379 774 653 888 506 846 b 165 425 253 700 165 571 b 419 53 165 268 269 140 b 364 -186 432 -26 413 -106 b 388 -203 351 -204 372 -208 b 667 -28 518 -179 611 -121 b 790 -37 715 -35 756 -37 b 1203 78 929 -37 1078 4 b 1415 425 1328 150 1415 279 b 1203 774 1415 571 1328 700 b 790 888 1078 846 929 888 "},"j":{"ha":1900,"x_min":0,"x_max":0,"o":"m 904 865 b 1226 651 1035 828 1154 763 b 1226 279 1299 539 1299 392 b 710 36 1122 115 896 36 b 614 43 681 36 649 39 b 363 -108 564 -35 481 -85 b 315 -56 319 -118 294 -90 b 363 125 354 7 369 67 b 139 465 231 201 139 322 b 517 865 136 674 325 817 b 904 865 647 903 774 903 m 526 842 b 165 465 344 796 163 663 b 388 140 165 328 256 217 b 339 -68 399 72 382 3 b 357 -82 329 -83 344 -86 b 600 71 471 -61 551 -10 b 710 63 650 65 686 63 b 1203 290 883 63 1101 136 b 1203 640 1272 396 1272 535 b 893 842 1133 746 1017 807 b 526 842 769 875 650 875 m 1001 15 b 992 13 997 18 993 17 l 986 3 b 988 -7 983 -1 983 -4 b 1367 -83 1099 -76 1225 -101 b 1574 -207 1410 -149 1478 -189 b 1614 -160 1608 -214 1632 -193 b 1576 -15 1583 -108 1571 -61 b 1761 267 1686 50 1761 150 b 1332 619 1761 485 1526 606 b 1324 613 1328 619 1325 617 l 1324 601 b 1329 593 1322 596 1325 593 b 1599 503 1424 586 1517 554 b 1735 267 1681 451 1735 365 b 1551 1 1735 154 1658 63 b 1590 -171 1543 -56 1556 -114 b 1579 -182 1596 -183 1592 -183 b 1379 -56 1486 -164 1419 -121 b 1001 15 1236 -76 1111 -53 "},"k":{"ha":1278,"x_min":0,"x_max":0,"o":"m 519 -246 b 372 -183 461 -246 413 -225 b 304 -31 332 -142 308 -90 l 243 750 l 147 750 b 139 757 142 750 139 753 l 139 769 b 147 776 139 774 142 776 l 463 776 l 463 897 b 506 940 463 921 482 940 l 774 940 b 815 897 796 940 815 921 l 815 776 l 1132 776 b 1139 769 1136 776 1139 774 l 1139 757 b 1132 750 1139 753 1136 750 l 1033 750 l 974 -31 b 907 -183 969 -90 947 -142 b 758 -246 867 -225 818 -246 m 789 776 l 789 897 b 774 914 789 908 783 914 l 506 914 b 489 897 494 914 489 908 l 489 776 m 271 750 l 331 -29 b 390 -164 335 -82 356 -126 b 519 -219 425 -201 468 -219 l 758 -219 b 889 -164 810 -219 854 -201 b 947 -29 924 -126 943 -82 l 1007 750 "},"l":{"ha":1426,"x_min":0,"x_max":0,"o":"m 701 981 b 708 988 701 985 704 988 l 721 988 b 728 981 725 988 728 985 l 728 882 b 1203 640 917 876 1093 794 b 1289 383 1257 564 1286 478 b 1247 340 1290 360 1274 340 l 738 340 l 738 -67 b 688 -189 738 -114 721 -154 b 564 -239 653 -222 613 -239 b 442 -189 515 -239 475 -222 b 390 -67 407 -154 390 -114 b 399 -58 390 -61 393 -58 l 410 -58 b 417 -67 414 -58 417 -61 b 564 -212 417 -146 482 -212 b 710 -67 643 -212 710 -149 l 710 340 l 182 340 b 140 383 158 340 139 360 b 226 640 143 478 172 564 b 435 817 281 717 350 776 b 701 882 518 857 607 879 m 167 383 b 182 367 167 372 172 367 l 1247 367 b 1263 382 1260 367 1264 372 b 1178 631 1260 474 1232 557 b 975 799 1124 704 1057 760 b 715 856 893 836 806 856 b 253 631 533 856 361 776 b 167 383 199 557 169 475 "},"m":{"ha":1454,"x_min":0,"x_max":0,"o":"m 382 692 l 382 914 b 421 954 382 936 400 954 l 1033 954 b 1072 914 1056 954 1072 936 l 1072 692 l 1106 692 b 1254 631 1163 692 1213 671 b 1315 482 1294 589 1315 539 l 1315 53 b 1275 13 1315 31 1297 13 l 1072 13 l 1072 -210 b 1033 -250 1072 -232 1056 -250 l 421 -250 b 382 -210 400 -250 382 -232 l 382 13 l 179 13 b 139 53 157 13 139 31 l 139 482 b 201 631 139 539 160 589 b 349 692 242 671 292 692 m 1046 692 l 1046 914 b 1033 926 1046 922 1042 926 l 421 926 b 408 914 413 926 408 922 l 408 692 m 165 53 b 179 39 165 43 169 39 l 382 39 l 382 301 l 1072 301 l 1072 39 l 1275 39 b 1289 53 1285 39 1289 43 l 1289 482 b 1236 613 1289 533 1271 576 b 1106 665 1200 647 1157 665 l 349 665 b 219 613 297 665 254 647 b 165 482 183 576 165 533 m 1044 585 b 981 521 1010 585 981 556 b 1044 457 981 486 1010 457 b 1110 521 1082 457 1110 486 b 1044 585 1110 556 1082 585 m 1044 563 b 1044 479 1099 563 1099 479 b 1044 563 993 479 993 563 m 1033 -224 b 1046 -210 1042 -224 1046 -219 l 1046 274 l 408 274 l 408 -210 b 421 -224 408 -219 413 -224 "},"n":{"ha":1160,"x_min":0,"x_max":0,"o":"m 307 -250 b 300 -242 303 -250 300 -247 l 300 -231 b 307 -222 300 -225 303 -222 l 492 -222 l 492 -21 b 247 47 406 -19 324 4 b 244 58 243 50 243 54 l 250 68 b 261 71 251 72 256 74 b 632 22 378 3 501 -14 b 929 251 763 57 861 133 b 978 622 997 368 1013 492 b 750 918 942 754 865 853 b 747 928 746 921 744 924 l 753 939 b 763 940 756 943 758 943 b 1003 629 886 869 967 765 b 953 238 1040 492 1024 361 b 639 -4 882 114 776 33 b 518 -21 594 -15 554 -21 l 518 -222 l 704 -222 b 711 -231 708 -222 711 -225 l 711 -242 b 704 -250 711 -247 708 -250 m 764 753 b 871 494 835 682 871 596 b 764 235 871 393 835 306 b 506 128 693 164 607 128 b 246 235 404 128 317 164 b 139 494 175 306 139 393 b 246 753 139 596 175 682 b 506 860 317 824 404 860 b 764 753 607 860 693 824 m 506 833 b 265 735 411 833 331 800 b 167 494 200 669 167 589 b 265 254 167 400 200 319 b 506 156 331 189 411 156 b 746 254 600 156 681 189 b 844 494 811 319 844 400 b 746 735 844 589 811 669 b 506 833 681 800 600 833 "},"o":{"ha":1501,"x_min":0,"x_max":0,"o":"m 349 792 b 219 739 297 792 254 774 b 165 608 183 703 165 660 l 165 524 b 158 517 165 519 163 517 l 146 517 b 139 524 142 517 139 519 l 139 608 b 201 757 139 665 160 715 b 349 818 242 797 292 818 l 433 818 b 440 811 438 818 440 815 l 440 799 b 433 792 440 794 438 792 l 349 792 m 1153 792 b 1283 739 1204 792 1247 774 b 1336 608 1318 703 1336 660 l 1336 524 b 1344 517 1336 519 1339 517 l 1356 517 b 1363 524 1360 517 1363 519 l 1363 608 b 1301 757 1363 665 1342 715 b 1153 818 1261 797 1211 818 l 1068 818 b 1061 811 1064 818 1061 815 l 1061 799 b 1068 792 1061 794 1064 792 l 1153 792 m 349 -119 b 219 -67 297 -119 254 -101 b 165 64 183 -31 165 13 l 165 149 b 158 157 165 154 163 157 l 146 157 b 139 149 142 157 139 154 l 139 64 b 201 -85 139 7 160 -43 b 349 -146 242 -125 292 -146 l 433 -146 b 440 -139 438 -146 440 -143 l 440 -126 b 433 -119 440 -122 438 -119 l 349 -119 m 1153 -119 b 1283 -67 1204 -119 1247 -101 b 1336 64 1318 -31 1336 13 l 1336 149 b 1344 157 1336 154 1339 157 l 1356 157 b 1363 149 1360 157 1363 154 l 1363 64 b 1301 -85 1363 7 1342 -43 b 1153 -146 1261 -125 1211 -146 l 1068 -146 b 1061 -139 1064 -146 1061 -143 l 1061 -126 b 1068 -119 1061 -122 1064 -119 l 1153 -119 "},"p":{"ha":1610,"x_min":0,"x_max":0,"o":"m 1261 738 b 1410 676 1318 738 1368 717 b 1471 528 1450 635 1471 585 l 1471 13 b 1410 -136 1471 -44 1450 -94 b 1261 -197 1368 -176 1318 -197 l 349 -197 b 201 -136 292 -197 242 -176 b 139 13 160 -94 139 -44 l 139 682 b 201 831 139 739 160 789 b 349 892 242 871 292 892 l 607 892 b 814 738 711 892 760 843 m 797 711 b 607 865 746 818 707 865 l 349 865 b 219 811 297 865 254 847 b 165 682 183 775 165 732 l 165 13 b 219 -118 165 -39 183 -82 b 349 -171 254 -153 297 -171 l 1261 -171 b 1390 -118 1311 -171 1354 -153 b 1444 13 1426 -82 1444 -39 l 1444 528 b 1390 658 1444 579 1426 622 b 1261 711 1354 693 1311 711 "},"q":{"ha":1703,"x_min":0,"x_max":0,"o":"m 1297 550 b 1501 390 1396 550 1479 485 l 1565 94 l 1561 575 b 1511 690 1561 624 1544 661 b 1378 736 1476 721 1432 736 l 963 736 b 772 890 911 843 872 890 l 507 890 b 324 725 406 890 324 825 l 324 643 b 317 636 324 639 321 636 l 304 636 b 297 643 300 636 297 639 l 297 725 b 358 864 297 782 318 829 b 507 917 399 899 449 917 l 772 917 b 979 763 876 917 925 868 l 1378 763 b 1529 710 1439 763 1489 744 b 1588 575 1568 675 1588 631 l 1588 -22 b 1524 -164 1588 -76 1567 -124 b 1378 -224 1481 -204 1432 -224 l 464 -224 b 261 -64 365 -224 283 -158 l 169 331 b 203 490 154 397 165 450 b 363 550 240 531 294 550 m 363 524 b 194 338 244 524 168 453 l 286 -58 b 464 -197 304 -142 379 -197 l 1378 -197 b 1522 -128 1439 -197 1488 -174 b 1556 31 1557 -82 1568 -29 l 1475 385 b 1297 524 1457 468 1382 524 "},"r":{"ha":1590,"x_min":0,"x_max":0,"o":"m 333 854 b 372 882 340 872 353 882 l 1218 882 b 1258 854 1238 882 1251 872 l 1451 300 l 1451 -139 b 1410 -181 1451 -161 1432 -181 l 181 -181 b 139 -139 158 -181 139 -161 l 139 300 m 171 311 l 557 311 b 597 275 578 311 593 296 b 667 146 604 219 626 176 b 796 100 707 115 750 100 b 924 146 842 100 883 115 b 993 275 964 176 986 219 b 1033 311 997 296 1013 311 l 1419 311 l 1233 846 b 1218 856 1229 853 1225 856 l 372 856 b 357 846 365 856 360 853 m 1425 285 l 1033 285 b 1019 272 1024 285 1019 281 b 733 83 1004 115 850 51 b 571 272 651 100 582 172 b 557 285 571 281 567 285 l 165 285 l 165 -139 b 181 -154 165 -149 171 -154 l 1410 -154 b 1425 -139 1419 -154 1425 -149 "},"s":{"ha":1411,"x_min":0,"x_max":0,"o":"m 964 -56 l 964 -96 b 911 -225 964 -146 946 -189 b 782 -278 875 -260 832 -278 l 321 -278 b 193 -225 271 -278 228 -260 b 139 -96 157 -189 139 -146 l 139 553 b 193 682 139 603 157 646 b 321 735 228 717 271 735 l 446 735 l 446 775 b 500 904 446 825 464 868 b 629 957 535 939 578 957 l 1018 957 l 1272 703 l 1272 126 b 1219 -3 1272 76 1254 33 b 1089 -56 1183 -37 1140 -56 m 964 481 l 964 -29 l 1089 -29 b 1246 126 1176 -29 1246 42 l 1246 674 l 1028 674 b 989 713 1007 674 989 692 l 989 931 l 629 931 b 519 885 586 931 550 915 b 472 775 488 854 472 818 l 472 735 l 710 735 m 1236 700 l 1015 921 l 1015 713 b 1028 700 1015 704 1019 700 m 938 458 l 725 458 b 688 496 704 458 688 475 l 688 708 l 321 708 b 165 553 236 708 165 638 l 165 -96 b 321 -251 165 -181 236 -251 l 782 -251 b 938 -96 869 -251 938 -183 m 714 693 l 714 496 b 725 485 714 489 718 485 l 922 485 "},"t":{"ha":1385,"x_min":0,"x_max":0,"o":"m 1258 -85 b 1246 -132 1265 -106 1261 -121 b 746 -139 1101 -237 935 -232 b 444 82 639 -87 539 -14 b 225 383 350 176 276 276 b 231 882 139 563 122 744 b 278 894 243 897 260 901 b 554 619 389 850 493 751 b 549 578 561 604 558 590 l 475 481 b 474 465 471 475 471 469 b 829 110 547 301 665 183 b 844 113 835 108 840 108 l 940 186 b 983 190 956 196 969 197 b 1258 -85 1107 133 1213 33 m 1233 -94 b 972 167 1193 11 1099 107 b 957 164 965 168 961 168 l 860 90 b 818 86 847 82 833 81 b 450 454 649 163 526 285 b 454 496 443 468 444 482 l 528 593 b 529 608 532 597 532 601 b 268 869 472 732 374 829 b 251 865 261 874 256 872 b 249 394 153 731 161 572 b 464 100 300 290 371 193 b 758 -115 557 7 654 -64 b 1229 -112 929 -196 1103 -212 b 1233 -94 1235 -108 1236 -101 m 1168 790 l 794 417 b 785 417 790 413 788 413 l 776 425 b 776 436 772 429 772 432 l 1149 808 l 833 808 b 825 817 828 808 825 811 l 825 828 b 833 835 825 832 828 835 l 1172 835 b 1194 813 1188 835 1194 828 l 1194 474 b 1188 467 1194 469 1192 467 l 1175 467 b 1168 474 1171 467 1168 469 "},"u":{"ha":1383,"x_min":0,"x_max":0,"o":"m 372 -203 b 325 -190 354 -210 338 -206 b 318 308 222 -62 219 104 b 539 610 371 415 444 515 b 840 831 631 703 731 776 b 1339 824 1044 929 1211 926 b 1351 776 1354 811 1358 794 b 1076 501 1307 665 1208 563 b 1035 506 1061 494 1047 496 l 938 579 b 922 581 932 583 926 583 b 568 226 758 508 640 390 b 569 211 565 219 565 215 l 643 114 b 647 72 653 100 654 86 b 372 -203 590 -51 490 -157 m 363 -179 b 624 83 468 -139 564 -43 b 622 99 626 88 626 92 l 549 194 b 543 236 539 207 536 221 b 911 606 619 407 742 529 b 954 600 928 611 942 610 l 1050 526 b 1065 525 1057 522 1061 522 b 1326 786 1192 582 1286 681 b 1322 803 1329 793 1328 799 b 851 806 1197 906 1021 889 b 558 592 749 756 651 685 b 343 297 465 499 394 401 b 346 -174 260 128 243 -49 b 363 -179 350 -179 356 -181 m 935 236 l 1308 -136 b 1308 -147 1313 -140 1313 -143 l 1300 -156 b 1290 -156 1296 -160 1293 -160 l 917 218 l 917 -99 b 910 -106 917 -103 914 -106 l 897 -106 b 890 -99 893 -106 890 -103 l 890 240 b 913 263 890 256 897 263 l 1251 263 b 1258 256 1256 263 1258 260 l 1258 244 b 1251 236 1258 239 1256 236 "},"v":{"ha":1385,"x_min":0,"x_max":0,"o":"m 278 -201 b 231 -189 260 -208 244 -204 b 225 310 122 -51 138 131 b 446 613 276 417 350 517 b 747 832 540 707 640 781 b 1246 825 925 918 1108 933 b 1258 778 1261 813 1265 796 b 983 503 1214 667 1115 564 b 940 507 968 496 953 497 l 844 581 b 829 582 838 583 833 583 b 474 228 667 510 547 392 b 476 213 472 221 472 217 l 549 115 b 554 74 558 103 561 89 b 278 -201 497 -50 399 -156 m 269 -178 b 529 85 375 -137 472 -42 b 528 100 532 89 532 94 l 454 196 b 450 238 444 210 443 224 b 818 607 526 408 649 531 b 860 601 833 614 847 611 l 957 528 b 972 526 963 524 968 524 b 1233 788 1099 586 1193 682 b 1229 804 1236 794 1235 800 b 758 807 1104 907 928 890 b 464 593 654 757 557 686 b 249 299 371 500 300 403 b 251 -172 161 119 153 -37 b 269 -178 256 -178 261 -179 "},"w":{"ha":1603,"x_min":0,"x_max":0,"o":"m 482 813 b 333 928 465 894 418 928 l 146 928 b 139 936 142 928 139 931 l 139 947 b 146 956 139 953 142 956 l 333 956 b 508 818 432 956 490 910 l 540 650 l 1422 650 b 1463 600 1450 650 1469 626 l 1349 181 b 1146 29 1325 90 1240 29 l 810 29 b 604 193 704 29 622 92 l 482 813 m 546 624 l 629 197 b 810 56 647 108 717 56 l 1146 56 b 1324 188 1229 56 1301 108 l 1438 607 b 1422 624 1439 614 1432 624 m 876 -75 b 876 -222 917 -115 917 -182 b 729 -222 836 -261 769 -261 b 729 -75 689 -182 689 -115 b 876 -75 769 -35 836 -35 m 1153 -44 b 1256 -149 1210 -44 1256 -92 b 1153 -251 1256 -206 1210 -251 b 1049 -149 1096 -251 1049 -206 b 1153 -44 1049 -92 1093 -44 m 749 -94 b 749 -203 718 -125 718 -174 b 858 -203 779 -232 828 -232 b 858 -94 889 -174 889 -125 b 749 -94 828 -64 779 -64 m 1099 -94 b 1153 -225 1049 -143 1085 -225 b 1207 -94 1218 -225 1254 -143 b 1099 -94 1178 -64 1129 -64 "},"x":{"ha":1604,"x_min":0,"x_max":0,"o":"m 722 649 l 913 840 b 1135 839 994 922 1053 921 l 1324 649 l 1424 649 b 1464 599 1450 649 1471 622 l 1349 179 b 1146 28 1325 86 1242 28 l 810 28 b 604 192 706 28 625 90 l 483 811 b 335 926 467 893 419 926 l 147 926 b 139 935 142 926 139 929 l 139 946 b 147 954 139 951 142 954 l 335 954 b 508 817 433 954 490 908 l 542 649 m 1288 649 l 1115 821 b 931 821 1044 892 1001 893 l 760 649 m 547 622 l 631 196 b 810 54 649 107 717 54 l 1146 54 b 1324 186 1229 54 1301 107 l 1438 606 b 1424 622 1439 613 1433 622 m 803 -46 b 907 -150 863 -46 907 -90 b 731 -224 913 -239 788 -287 b 803 -46 664 -165 714 -40 m 1226 -76 b 1226 -224 1267 -117 1267 -183 b 1079 -224 1186 -262 1119 -262 b 1079 -76 1039 -183 1039 -117 b 1226 -76 1119 -36 1186 -36 m 749 -96 b 726 -150 733 -111 726 -129 b 803 -226 726 -190 763 -226 b 858 -96 871 -226 907 -144 b 749 -96 828 -65 778 -65 m 1099 -96 b 1099 -204 1068 -126 1068 -175 b 1208 -204 1129 -233 1178 -233 b 1208 -96 1239 -175 1239 -126 b 1099 -96 1178 -65 1129 -65 "},"y":{"ha":1360,"x_min":0,"x_max":0,"o":"m 574 1054 b 574 1044 578 1050 578 1047 b 443 750 486 969 443 871 b 436 742 443 744 440 742 l 424 742 b 417 750 419 742 417 744 b 556 1064 417 879 463 985 b 567 1064 560 1067 564 1067 m 592 750 b 700 994 592 850 628 932 b 711 994 704 999 707 999 l 718 986 b 718 975 722 982 722 979 b 618 750 651 918 618 843 b 611 742 618 744 615 742 l 599 742 b 592 750 594 742 592 744 m 929 535 l 999 535 b 999 85 1294 535 1294 85 l 929 85 l 929 -61 b 878 -185 929 -110 913 -150 b 754 -236 843 -219 803 -236 l 314 -236 b 190 -185 265 -236 225 -219 b 139 -61 156 -150 139 -110 l 139 628 b 181 669 139 650 157 669 l 888 669 b 929 628 911 669 929 650 m 754 -210 b 903 -61 836 -210 903 -143 l 903 628 b 888 643 903 638 897 643 l 181 643 b 165 628 171 643 165 638 l 165 -61 b 314 -210 165 -143 232 -210 m 929 111 l 999 111 b 1144 174 1061 111 1110 132 b 1196 310 1179 214 1196 260 b 1144 446 1196 358 1179 404 b 999 507 1110 486 1061 507 l 929 507 "},"z":{"ha":1464,"x_min":0,"x_max":0,"o":"m 494 565 l 494 675 b 735 911 494 829 614 915 b 975 675 856 915 975 829 l 975 565 l 1031 565 b 1236 389 1149 565 1217 507 l 1328 -172 b 1286 -221 1332 -199 1313 -221 l 183 -221 b 142 -172 157 -221 138 -199 l 233 389 b 439 565 253 507 321 565 m 949 565 l 949 675 b 674 878 950 843 794 911 b 522 675 589 860 522 782 l 522 565 m 522 439 b 590 358 561 432 590 397 b 508 276 590 313 553 276 b 426 358 464 276 426 313 b 494 439 426 397 456 432 l 494 539 l 439 539 b 260 385 332 539 276 490 l 168 -176 b 183 -194 167 -189 171 -194 l 1286 -194 b 1301 -176 1299 -194 1303 -189 l 1210 385 b 1031 539 1193 490 1138 539 l 975 539 l 975 439 b 1043 358 1014 432 1043 397 b 961 276 1043 313 1006 276 b 879 358 917 276 879 313 b 949 439 879 397 910 432 l 949 539 l 522 539 m 469 397 b 547 319 415 351 500 265 b 549 397 569 342 569 375 b 469 397 526 418 490 418 m 961 413 b 907 358 932 413 907 388 b 1000 319 907 308 965 285 b 961 413 1035 354 1011 413 "}}}
